# xmcd CD database file
#
# Track frame offsets:
#	150
#	13511
#	28180
#	39538
#	54238
#	70157
#	83743
#	98375
#	111905
#	121753
#	132296
#	145078
#	155507
#	163920
#	175929
#	186357
#	198599
#	211213
#	224006
#	235407
#	256579
#
# Disc length: 4440 seconds
#
# Revision: 0
# Processed by: cddbd v1.5.1PL2 Copyright (c) Steve Scherf et al.
# Submitted via: CDex 1.51
#
DISCID=25115615
DTITLE=Various Artist - The Best Country Album in the World Ever - Volume 2 [CD2)
DYEAR=2005
DGENRE=Country
TTITLE0=Faron Young - It's Four In The Morning
TTITLE1=Olivia Newton-John - If You Love Me, Let Me Know
TTITLE2=Waylon and Willie - Mamma's Don't Let Your Babies Grow Up To Be Cowboys
TTITLE3=Rosanne Cash - Seven Year Ache
TTITLE4=Willie Nelson - Always On My Mind
TTITLE5=Jodi Vaughan - Lay A Little Lovin' On Me
TTITLE6=Kenny Rogers and Dottie West - Hey, Won't You Play Another Somebody Done Somebody Wrong Song
TTITLE7=Patsy Riggir - Lay Down Beside Me
TTITLE8=Merle Haggard - Mama Tried
TTITLE9=The Statler Brothers - Flowers On The Wall
TTITLE10=Bobby Bare - Four Strong Winds
TTITLE11=Connie Smith - Once A Day
TTITLE12=Roger Miller - Dang Me
TTITLE13=Skeeter Davis - The End Of The World
TTITLE14=Ferlin Husky - Wings Of A Dove
TTITLE15=Jeanne Black - He'll Have To Stay
TTITLE16=Jim Reeves - I Love You Because
TTITLE17=Patsy Cline - I Fall To Pieces
TTITLE18=Don Gibson - Sea Of Heartbreak
TTITLE19=George Jones - The Race Is On
TTITLE20=/ Data
EXTD=YEAR: 2005
EXTT0=
EXTT1=
EXTT2=
EXTT3=
EXTT4=
EXTT5=
EXTT6=
EXTT7=
EXTT8=
EXTT9=
EXTT10=
EXTT11=
EXTT12=
EXTT13=
EXTT14=
EXTT15=
EXTT16=
EXTT17=
EXTT18=
EXTT19=
EXTT20=
PLAYORDER=
